<?xml version="1.0" encoding="UTF-8"?>
<svg width="30px" height="20px" viewBox="0 0 20 15" version="1.1" xmlns="http://www.w3.org/2000/svg" xmlns:xlink="http://www.w3.org/1999/xlink">
    <title>Shape</title>
    <desc>Created with Sketch.</desc>
    <g id="Page-1" stroke="none" stroke-width="1" fill="none" fill-rule="evenodd">
        <g id="Desktop-HD" transform="translate(-1305.000000, -61.000000)" fill="#FF0055" fill-rule="nonzero">
            <g id="Group" transform="translate(1290.000000, 61.000000)">
                <path d="M32.2765957,14.6808511 L33.4680851,14.6808511 C33.8085106,14.6808511 34.1489362,14.3138298 34.1489362,13.9468085 L34.1489362,0.734042553 C34.1489362,0.367021277 33.8085106,-1.20792265e-13 33.4680851,-1.20792265e-13 L32.2765957,-1.20792265e-13 C31.9361702,-1.20792265e-13 31.5957447,0.367021277 31.5957447,0.734042553 L31.5957447,13.9468085 C31.5957447,14.3138298 31.9361702,14.6808511 32.2765957,14.6808511 Z M21.4255319,14.6808511 L22.6170213,14.6808511 C22.9574468,14.6808511 23.2978723,14.3161094 23.2978723,13.9513678 L23.2978723,2.6443769 C23.2978723,2.27963526 22.9574468,1.91489362 22.6170213,1.91489362 L21.4255319,1.91489362 C21.0851064,1.91489362 20.7446809,2.27963526 20.7446809,2.6443769 L20.7446809,13.9513678 C20.7446809,14.3161094 21.0851064,14.6808511 21.4255319,14.6808511 L21.4255319,14.6808511 Z M27.1702128,14.6808511 L28.3617021,14.6808511 C28.7021277,14.6808511 29.0425532,14.2978723 29.0425532,13.9148936 L29.0425532,5.87234043 C29.0425532,5.4893617 28.7021277,5.10638298 28.3617021,5.10638298 L27.1702128,5.10638298 C26.8297872,5.10638298 26.4893617,5.4893617 26.4893617,5.87234043 L26.4893617,13.9148936 C26.4893617,14.2978723 26.8297872,14.6808511 27.1702128,14.6808511 L27.1702128,14.6808511 Z M15.6808511,14.6808511 L16.8723404,14.6808511 C17.212766,14.6808511 17.5531915,14.2978723 17.5531915,13.9148936 L17.5531915,9.70212766 C17.5531915,9.31914894 17.212766,8.93617021 16.8723404,8.93617021 L15.6808511,8.93617021 C15.3404255,8.93617021 15,9.31914894 15,9.70212766 L15,13.9148936 C15,14.2978723 15.3404255,14.6808511 15.6808511,14.6808511 L15.6808511,14.6808511 Z" id="Shape"></path>
            </g>
        </g>
    </g>
</svg>